<svg width="320" height="320" viewBox="0 0 320 320" fill="none" xmlns="http://www.w3.org/2000/svg">
  <!-- Background -->
  <rect width="320" height="320" fill="#F9FAFB"/>
  
  <!-- QR Code Pattern Placeholder -->
  <g opacity="0.3">
    <!-- Corner markers -->
    <rect x="40" y="40" width="60" height="60" fill="#1F2937" rx="4"/>
    <rect x="220" y="40" width="60" height="60" fill="#1F2937" rx="4"/>
    <rect x="40" y="220" width="60" height="60" fill="#1F2937" rx="4"/>
    
    <!-- Inner white -->
    <rect x="50" y="50" width="40" height="40" fill="#F9FAFB" rx="2"/>
    <rect x="230" y="50" width="40" height="40" fill="#F9FAFB" rx="2"/>
    <rect x="50" y="230" width="40" height="40" fill="#F9FAFB" rx="2"/>
    
    <!-- Center dot -->
    <rect x="65" y="65" width="10" height="10" fill="#1F2937"/>
    <rect x="245" y="65" width="10" height="10" fill="#1F2937"/>
    <rect x="65" y="245" width="10" height="10" fill="#1F2937"/>
    
    <!-- Random pattern -->
    <rect x="120" y="50" width="10" height="10" fill="#1F2937"/>
    <rect x="140" y="50" width="10" height="10" fill="#1F2937"/>
    <rect x="180" y="50" width="10" height="10" fill="#1F2937"/>
    <rect x="120" y="70" width="10" height="10" fill="#1F2937"/>
    <rect x="160" y="70" width="10" height="10" fill="#1F2937"/>
    <rect x="180" y="70" width="10" height="10" fill="#1F2937"/>
  </g>
  
  <!-- Center Icon -->
  <circle cx="160" cy="160" r="50" fill="#6366F1"/>
  <path d="M160 130 L160 170 M140 150 L180 150" stroke="white" stroke-width="8" stroke-linecap="round"/>
  
  <!-- Text -->
  <text x="160" y="200" text-anchor="middle" font-family="Arial, sans-serif" font-size="14" fill="#6B7280">
    Swish QR-kod
  </text>
  <text x="160" y="220" text-anchor="middle" font-family="Arial, sans-serif" font-size="12" fill="#9CA3AF">
    Ersatt med din egen QR-kod
  </text>
</svg>
